<svg width="161" height="33" viewBox="0 0 161 33" fill="none" xmlns="http://www.w3.org/2000/svg">
<circle cx="16.0947" cy="16.0947" r="16.0947" fill="#19297C"/>
<path d="M16.0946 32.1875C23.022 32.1875 28.9273 27.8109 31.1961 21.6719H0.993164C3.26195 27.8109 9.16717 32.1875 16.0946 32.1875Z" fill="#2E3C88"/>
<g clipPath="url(#clip0_13800_1913)">
<path d="M20.4795 20.0172C22.0854 19.6452 23.286 18.2029 23.286 16.4855C23.286 14.4868 21.6599 12.8606 19.6611 12.8606H17.3677V11.9588H18.1353V11.1562H14.739V11.9588H15.4938V12.8607H14.9488V13.2374V20.1104H19.6611C19.6664 20.1104 19.6716 20.1102 19.6769 20.1102V20.9125H14.9488V20.1104H14.1462V20.9125H13.1974V20.1102C13.2027 20.1102 13.208 20.1104 13.2132 20.1104H14.1462V19.2922H13.1974V20.1102C12.9216 20.109 12.653 20.077 12.3948 20.0172V13.3584V12.9538C10.7889 13.3258 9.58838 14.7681 9.58838 16.4856C9.58838 18.2029 10.7889 19.6452 12.3948 20.0172V20.9125H9.58838V21.7151H23.286V20.9125H20.4795V20.0172Z" fill="white"/>
<path d="M13.1973 17.6758H14.1461V18.4885H13.1973V17.6758Z" fill="white"/>
<path d="M13.1973 14.4453H14.1461V15.258H13.1973V14.4453Z" fill="white"/>
<path d="M13.1973 16.0625H14.1461V16.8752H13.1973V16.0625Z" fill="white"/>
<path d="M13.1973 13.6424H14.1461V13.2361V12.8594H13.2131C13.2078 12.8594 13.2025 12.8596 13.1973 12.8596V13.3571V13.6424Z" fill="white"/>
</g>
<path d="M52.194 25.0938H48.8766V12.2094H44.6282V9.44852H56.4424V12.2094H52.194V25.0938ZM62.3987 12.8836C64.0039 12.8836 65.2345 13.2332 66.0906 13.9323C66.9467 14.6315 67.3748 15.6945 67.3748 17.1213V25.0938H65.0954L64.464 23.4672H64.3784C64.036 23.8952 63.6864 24.2448 63.3297 24.5159C62.973 24.787 62.5628 24.9867 62.0991 25.1152C61.6353 25.2436 61.0717 25.3078 60.4083 25.3078C59.702 25.3078 59.067 25.1722 58.5034 24.9011C57.947 24.63 57.5082 24.2162 57.1872 23.6598C56.8662 23.0962 56.7056 22.3828 56.7056 21.5195C56.7056 20.2497 57.1515 19.3151 58.0433 18.7158C58.9351 18.1094 60.2727 17.7741 62.0563 17.7099L64.1323 17.6457V17.1213C64.1323 16.4935 63.9682 16.0334 63.64 15.7409C63.3119 15.4484 62.8553 15.3021 62.2703 15.3021C61.6924 15.3021 61.1253 15.3841 60.5688 15.5482C60.0123 15.7123 59.4559 15.9192 58.8994 16.1689L57.8186 13.9644C58.4535 13.6291 59.1634 13.3652 59.9481 13.1726C60.74 12.9799 61.5569 12.8836 62.3987 12.8836ZM64.1323 19.5505L62.8696 19.5933C61.8137 19.6218 61.0789 19.8109 60.6651 20.1605C60.2585 20.51 60.0551 20.9702 60.0551 21.5409C60.0551 22.0403 60.2014 22.397 60.4939 22.6111C60.7864 22.818 61.1681 22.9214 61.6389 22.9214C62.3381 22.9214 62.9266 22.7145 63.4046 22.3007C63.8897 21.8869 64.1323 21.2984 64.1323 20.535V19.5505ZM76.4452 12.905C77.7222 12.905 78.7495 13.2546 79.5271 13.9537C80.3047 14.6458 80.6936 15.7587 80.6936 17.2925V25.0938H77.4297V18.1058C77.4297 17.2497 77.2727 16.6041 76.9588 16.1689C76.6521 15.7337 76.1669 15.5161 75.5035 15.5161C74.5047 15.5161 73.8234 15.855 73.4595 16.5327C73.0957 17.2105 72.9137 18.1879 72.9137 19.4649V25.0938H69.6499V13.1298H72.1433L72.582 14.66H72.7639C73.0208 14.2462 73.3382 13.9109 73.7163 13.6541C74.1016 13.3973 74.5261 13.2082 74.9898 13.0869C75.4606 12.9657 75.9458 12.905 76.4452 12.905ZM86.2218 8.4426V15.8907C86.2218 16.3401 86.204 16.7896 86.1683 17.239C86.1326 17.6885 86.0934 18.1379 86.0506 18.5874H86.0934C86.3146 18.2735 86.5393 17.9632 86.7676 17.6564C87.003 17.3496 87.2527 17.0535 87.5167 16.7682L90.8662 13.1298H94.5474L89.796 18.3199L94.8363 25.0938H91.0695L87.6237 20.2461L86.2218 21.3697V25.0938H82.9579V8.4426H86.2218ZM105.287 25.0938L104.153 21.3697H98.4491L97.3147 25.0938H93.7405L99.2624 9.38431H103.318L108.861 25.0938H105.287ZM103.361 18.5874L102.227 14.949C102.155 14.7064 102.059 14.3961 101.938 14.018C101.824 13.6327 101.706 13.2439 101.585 12.8515C101.47 12.452 101.378 12.106 101.306 11.8135C101.235 12.106 101.135 12.4698 101.007 12.905C100.885 13.3331 100.768 13.7397 100.654 14.125C100.539 14.5102 100.457 14.7849 100.407 14.949L99.2838 18.5874H103.361ZM119.323 25.0938L118.403 20.9096C118.353 20.6599 118.271 20.2925 118.156 19.8073C118.042 19.3151 117.918 18.7907 117.782 18.2342C117.654 17.6706 117.532 17.1499 117.418 16.6719C117.311 16.1939 117.233 15.8443 117.183 15.6231H117.086C117.036 15.8443 116.958 16.1939 116.851 16.6719C116.744 17.1499 116.623 17.6706 116.487 18.2342C116.359 18.7978 116.237 19.3293 116.123 19.8287C116.009 20.321 115.924 20.6955 115.866 20.9524L114.903 25.0938H111.393L107.99 13.1298H111.243L112.624 18.4269C112.717 18.7978 112.806 19.2402 112.891 19.7538C112.977 20.2604 113.052 20.7526 113.116 21.2306C113.188 21.7015 113.241 22.076 113.277 22.3542H113.362C113.377 22.1473 113.405 21.8727 113.448 21.5302C113.498 21.1878 113.551 20.8347 113.608 20.4708C113.673 20.0998 113.73 19.7681 113.78 19.4756C113.837 19.176 113.88 18.9726 113.908 18.8656L115.385 13.1298H118.98L120.382 18.8656C120.432 19.0725 120.497 19.4007 120.575 19.8501C120.661 20.2996 120.735 20.7633 120.8 21.2413C120.864 21.7122 120.9 22.0831 120.907 22.3542H120.992C121.021 22.1117 121.071 21.7514 121.142 21.2734C121.213 20.7954 121.296 20.296 121.388 19.7752C121.488 19.2473 121.588 18.7978 121.688 18.4269L123.122 13.1298H126.322L122.876 25.0938H119.323ZM132.064 12.8836C133.669 12.8836 134.9 13.2332 135.756 13.9323C136.612 14.6315 137.04 15.6945 137.04 17.1213V25.0938H134.761L134.129 23.4672H134.044C133.701 23.8952 133.352 24.2448 132.995 24.5159C132.638 24.787 132.228 24.9867 131.764 25.1152C131.3 25.2436 130.737 25.3078 130.073 25.3078C129.367 25.3078 128.732 25.1722 128.169 24.9011C127.612 24.63 127.173 24.2162 126.852 23.6598C126.531 23.0962 126.371 22.3828 126.371 21.5195C126.371 20.2497 126.817 19.3151 127.708 18.7158C128.6 18.1094 129.938 17.7741 131.721 17.7099L133.797 17.6457V17.1213C133.797 16.4935 133.633 16.0334 133.305 15.7409C132.977 15.4484 132.52 15.3021 131.935 15.3021C131.358 15.3021 130.79 15.3841 130.234 15.5482C129.677 15.7123 129.121 15.9192 128.565 16.1689L127.484 13.9644C128.119 13.6291 128.828 13.3652 129.613 13.1726C130.405 12.9799 131.222 12.8836 132.064 12.8836ZM133.797 19.5505L132.535 19.5933C131.479 19.6218 130.744 19.8109 130.33 20.1605C129.924 20.51 129.72 20.9702 129.72 21.5409C129.72 22.0403 129.867 22.397 130.159 22.6111C130.452 22.818 130.833 22.9214 131.304 22.9214C132.003 22.9214 132.592 22.7145 133.07 22.3007C133.555 21.8869 133.797 21.2984 133.797 20.535V19.5505ZM145.993 12.905C146.157 12.905 146.346 12.9157 146.56 12.9371C146.781 12.9514 146.959 12.9728 147.095 13.0013L146.849 16.0619C146.742 16.0262 146.588 16.0013 146.389 15.987C146.196 15.9656 146.028 15.9549 145.886 15.9549C145.465 15.9549 145.054 16.0084 144.655 16.1154C144.263 16.2224 143.909 16.3972 143.596 16.6398C143.282 16.8752 143.032 17.1891 142.846 17.5815C142.668 17.9667 142.579 18.4411 142.579 19.0047V25.0938H139.315V13.1298H141.787L142.269 15.1416H142.429C142.664 14.7349 142.957 14.364 143.307 14.0287C143.663 13.6862 144.066 13.4151 144.516 13.2154C144.972 13.0085 145.465 12.905 145.993 12.905ZM153.105 12.905C154.21 12.905 155.163 13.1191 155.962 13.5471C156.761 13.968 157.378 14.5816 157.813 15.3877C158.248 16.1939 158.466 17.1784 158.466 18.3413V19.925H150.75C150.786 20.8454 151.061 21.5695 151.574 22.0974C152.095 22.6182 152.816 22.8786 153.736 22.8786C154.499 22.8786 155.199 22.8001 155.833 22.6432C156.468 22.4862 157.121 22.2508 157.792 21.9369V24.4624C157.2 24.7549 156.579 24.9689 155.93 25.1045C155.288 25.24 154.507 25.3078 153.586 25.3078C152.388 25.3078 151.325 25.0866 150.397 24.6443C149.477 24.202 148.753 23.5278 148.225 22.6218C147.704 21.7157 147.444 20.5743 147.444 19.1974C147.444 17.7991 147.679 16.6362 148.15 15.7088C148.628 14.7742 149.291 14.075 150.14 13.6113C150.989 13.1405 151.977 12.905 153.105 12.905ZM153.126 15.2272C152.491 15.2272 151.963 15.4305 151.542 15.8372C151.128 16.2438 150.889 16.8823 150.825 17.7527H155.405C155.398 17.2676 155.309 16.836 155.138 16.4578C154.974 16.0797 154.724 15.7801 154.389 15.5589C154.061 15.3378 153.64 15.2272 153.126 15.2272Z" fill="#1A202C"/>
<defs>
<clipPath id="clip0_13800_1913">
<rect width="13.6976" height="13.6976" fill="white" transform="translate(9.58838 9.58984)"/>
</clipPath>
</defs>
</svg>
